<svg xmlns="http://www.w3.org/2000/svg" width="67.5" height="75" viewBox="0 0 67.5 75">
  <path id="Tracé_36" data-name="Tracé 36" d="M34.281,73a2.726,2.726,0,0,1-2.812-2.812V30.813a2.813,2.813,0,1,1,5.625,0V70.188A2.726,2.726,0,0,1,34.281,73ZM49.75,88a2.726,2.726,0,0,1-2.812-2.812V15.813a2.813,2.813,0,1,1,5.625,0V85.188A2.726,2.726,0,0,1,49.75,88ZM18.813,58A2.726,2.726,0,0,1,16,55.188V45.813a2.813,2.813,0,1,1,5.625,0v9.375A2.726,2.726,0,0,1,18.813,58ZM65.219,73a2.726,2.726,0,0,1-2.813-2.812V30.813a2.813,2.813,0,1,1,5.625,0V70.188A2.726,2.726,0,0,1,65.219,73ZM80.688,58a2.726,2.726,0,0,1-2.812-2.812V45.813a2.813,2.813,0,1,1,5.625,0v9.375A2.726,2.726,0,0,1,80.688,58Z" transform="translate(-16 -13)" fill="#fcfffc"/>
</svg>
